<svg width="1057" height="164" viewBox="0 0 1057 164" fill="none" xmlns="http://www.w3.org/2000/svg">
<path d="M2.4 65.25C2.4 45.15 19.35 30.9 43.2 30.9C67.05 30.9 82.05 44.1 82.05 65.1H57.9C57.9 57.3 52.05 52.5 42.9 52.5C33 52.5 26.7 57 26.7 64.35C26.7 71.1 30.15 74.4 37.95 76.05L54.6 79.5C74.4 83.55 83.85 93 83.85 110.55C83.85 132 67.05 145.95 41.55 145.95C16.8 145.95 0.75 132.6 0.75 111.75H24.9C24.9 119.85 30.9 124.35 41.7 124.35C52.65 124.35 59.55 120 59.55 112.95C59.55 106.8 56.7 103.65 49.35 102.15L32.4 98.7C12.6 94.65 2.4 83.4 2.4 65.25ZM143.456 25.35H126.806L110.156 0.449997H130.856L143.456 25.35ZM170.456 144H99.9563V33H170.456V55.5H124.256V77.25H165.206V98.55H124.256V121.5H170.456V144ZM217.787 101.85L180.287 33H207.437L226.037 69C227.837 72.45 229.037 75.15 230.237 78C231.587 75.3 232.787 72.45 234.587 68.85L253.187 33H279.587L242.087 101.85V144H217.787V101.85ZM329.633 0.449997L312.983 25.35H296.333L308.933 0.449997H329.633ZM316.883 33V144H292.583V33H316.883ZM365.394 136.35C365.394 150.75 355.344 161.85 341.244 163.35V155.1C348.744 153.75 354.144 149.7 354.594 143.55C353.394 144.15 351.894 144.45 350.244 144.45C343.194 144.45 337.794 139.2 337.794 132.6C337.794 124.35 342.894 118.8 350.694 118.8C359.394 118.8 365.394 126 365.394 136.35ZM362.695 55.5V33H449.995V55.5H418.495V144H394.195V55.5H362.695ZM488.856 144H464.556V33H488.856V76.8H531.756V33H556.056V144H531.756V99.3H488.856V144ZM649.607 144H579.107V33H649.607V55.5H603.407V77.25H644.357V98.55H603.407V121.5H649.607V144ZM714.488 107.1H693.788V144H669.488V33H714.488C737.137 33 752.288 47.85 752.288 70.05C752.288 92.25 737.137 107.1 714.488 107.1ZM709.088 54.6H693.788V85.5H709.088C720.788 85.5 726.638 80.4 726.638 70.05C726.638 59.7 720.788 54.6 709.088 54.6ZM870.232 88.35C870.232 122.25 847.882 145.8 815.632 145.8C783.532 145.8 761.482 122.4 761.482 88.5C761.482 54.6 783.682 31.05 815.782 31.05C848.032 31.05 870.232 54.45 870.232 88.35ZM844.582 88.35C844.582 67.2 833.782 54.45 815.932 54.45C797.932 54.45 787.132 67.2 787.132 88.35C787.132 109.65 797.932 122.4 815.932 122.4C833.782 122.4 844.582 109.35 844.582 88.35ZM957.663 144H887.163V33H957.663V55.5H911.463V77.25H952.413V98.55H911.463V121.5H957.663V144ZM968.994 55.5V33H1056.29V55.5H1024.79V144H1000.49V55.5H968.994Z" fill="black"/>
</svg>
